Coordinates
version=1
nRows=38
nColumns=12
inDegrees=yes

Units are S.I. units (second, meters, Newtons, ...)
Angles are in degrees

endheader
time	SC_y	SC_z	SC_x	AC_y	AC_z	AC_x	GH_y	GH_z	GH_yy	EL_x	PS_y
       0.0              -49.02          7.095          7.222          57.39         -9.941          8.918         -125.6          18.57          154.5          98.19          84.31
   0.03721              -49.01          7.097          7.222          57.38         -9.941          8.917         -125.6          18.58          154.5          98.19          84.31
   0.07443              -49.01          7.099          7.223          57.38         -9.941          8.917         -125.6          18.58          154.5          98.19           84.3
    0.1116              -49.01          7.101          7.224          57.38         -9.941          8.916         -125.5          18.59          154.4           98.2           84.3
    0.1489              -49.01          7.103          7.225          57.38         -9.941          8.915         -125.5           18.6          154.4           98.2           84.3
    0.1861               -49.0          7.106          7.226          57.38         -9.941          8.915         -125.5          18.61          154.4           98.2          84.29
    0.2233               -49.0          7.108          7.227          57.37         -9.941          8.914         -125.5          18.61          154.3           98.2          84.29
    0.2605               -49.0          7.111          7.228          57.37         -9.941          8.913         -125.5          18.62          154.3           98.2          84.28
    0.2977              -48.99          7.114          7.229          57.37         -9.941          8.912         -125.4          18.63          154.3          98.21          84.28
    0.3349              -48.99          7.118          7.231          57.36         -9.941          8.911         -125.4          18.64          154.2          98.21          84.27
    0.3721              -48.99          7.121          7.232          57.36         -9.941           8.91         -125.4          18.65          154.2          98.21          84.27
    0.4094              -48.98          7.125          7.234          57.35         -9.941          8.909         -125.4          18.66          154.1          98.22          84.26
    0.4466              -48.98          7.129          7.235          57.35         -9.941          8.908         -125.3          18.67          154.0          98.22          84.26
    0.4838              -48.97          7.133          7.237          57.35         -9.941          8.907         -125.3          18.69          154.0          98.22          84.25
     0.521              -48.97          7.138          7.239          57.34         -9.941          8.905         -125.3           18.7          153.9          98.23          84.24
    0.5582              -48.96          7.143          7.241          57.33         -9.941          8.904         -125.2          18.71          153.8          98.23          84.23
    0.5954              -48.96          7.149          7.243          57.33         -9.941          8.902         -125.2          18.73          153.7          98.24          84.22
    0.6326              -48.95          7.155          7.246          57.32         -9.941            8.9         -125.1          18.75          153.7          98.24          84.22
    0.6698              -48.94          7.162          7.248          57.31         -9.941          8.898         -125.1          18.77          153.6          98.25           84.2
    0.7071              -48.93          7.169          7.251          57.31         -9.941          8.896         -125.0          18.79          153.4          98.25          84.19
    0.7443              -48.92          7.177          7.255           57.3         -9.941          8.894         -125.0          18.81          153.3          98.26          84.18
    0.7815              -48.91          7.186          7.258          57.29         -9.941          8.891         -124.9          18.84          153.2          98.27          84.17
    0.8187               -48.9          7.196          7.262          57.28         -9.941          8.888         -124.8          18.87          153.1          98.28          84.15
    0.8559              -48.89          7.207          7.266          57.27         -9.941          8.885         -124.7           18.9          152.9          98.29          84.13
    0.8931              -48.88          7.219          7.271          57.25         -9.941          8.882         -124.7          18.93          152.7           98.3          84.12
    0.9303              -48.86          7.233          7.277          57.24         -9.941          8.878         -124.6          18.97          152.5          98.31          84.09
    0.9676              -48.85          7.248          7.283          57.22         -9.941          8.873         -124.4          19.01          152.3          98.32          84.07
     1.005              -48.83          7.265          7.289          57.21          -9.94          8.868         -124.3          19.06          152.0          98.33          84.04
     1.042              -48.81          7.284          7.297          57.18          -9.94          8.863         -124.2          19.12          151.8          98.35          84.01
     1.079              -48.78          7.306          7.306          57.16          -9.94          8.857         -124.0          19.18          151.4          98.37          83.98
     1.116              -48.75          7.331          7.316          57.13          -9.94          8.849         -123.8          19.25          151.1          98.39          83.94
     1.154              -48.72          7.359          7.327           57.1          -9.94          8.841         -123.6          19.34          150.7          98.41           83.9
     1.191              -48.69          7.392           7.34          57.07          -9.94          8.831         -123.4          19.43          150.2          98.44          83.84
     1.228              -48.64          7.431          7.355          57.03          -9.94           8.82         -123.1          19.54          149.6          98.47          83.78
     1.265              -48.59          7.475          7.373          56.98          -9.94          8.807         -122.7          19.67          149.0          98.51          83.71
     1.302              -48.54          7.528          7.394          56.92          -9.94          8.792         -122.3          19.82          148.2          98.55          83.63
      1.34              -48.47          7.591          7.419          56.86          -9.94          8.774         -121.9           20.0          147.3          98.61          83.53
     1.377              -48.38          7.667          7.449          56.77          -9.94          8.752         -121.3          20.22          146.2          98.67          83.41
